<?xml version="1.0" standalone="no"?>
<!DOCTYPE svg PUBLIC "-//W3C//DTD SVG 20010904//EN"
 "http://www.w3.org/TR/2001/REC-SVG-20010904/DTD/svg10.dtd">
<svg version="1.0" xmlns="http://www.w3.org/2000/svg"
 width="120.000000pt" height="50.000000pt" viewBox="0 0 120.000000 50.000000"
 preserveAspectRatio="xMidYMid meet">

<g transform="translate(0.000000,50.000000) scale(0.100000,-0.100000)"
fill="#000000" stroke="none">
<path d="M162 453 c37 -146 54 -203 59 -203 4 0 13 27 22 60 12 51 13 60 1 60
-8 0 -14 -8 -14 -17 0 -27 -19 -2 -26 35 l-6 32 46 0 c27 0 46 -5 46 -11 0
-21 -65 -259 -70 -259 -3 0 -23 68 -45 151 -21 84 -41 145 -45 137 -4 -7 -28
-94 -54 -193 -26 -99 -49 -188 -52 -197 -5 -16 3 -18 81 -18 l87 0 -6 33 c-3
17 -17 70 -30 117 l-23 85 -17 -54 c-9 -30 -16 -61 -16 -68 0 -19 17 -16 25 5
7 16 8 15 15 -3 5 -11 9 -30 9 -42 1 -21 -4 -23 -44 -23 -25 0 -45 3 -45 7 0
8 59 232 67 253 7 21 18 -9 55 -157 17 -68 34 -123 37 -123 6 0 111 381 111
403 0 4 -39 7 -86 7 -77 0 -86 -2 -82 -17z"/>
<path d="M410 368 c1 -7 7 -42 15 -78 19 -86 19 -90 -6 -90 -17 0 -20 5 -17
25 4 16 1 25 -7 25 -8 0 -18 -27 -25 -72 -7 -40 -14 -76 -17 -80 -2 -5 3 -8
11 -8 9 0 16 11 18 28 2 22 8 28 36 30 29 3 33 0 38 -27 4 -17 12 -31 19 -31
9 0 6 33 -11 123 -13 67 -26 132 -29 145 -6 23 -25 31 -25 10z"/>
<path d="M480 363 c0 -10 12 -74 25 -143 14 -69 25 -126 25 -127 0 -2 6 -3 13
-3 10 0 22 43 41 141 24 129 27 163 10 146 -3 -3 -14 -49 -25 -103 -20 -104
-24 -116 -33 -87 -5 16 -36 180 -36 189 0 2 -4 4 -10 4 -5 0 -10 -8 -10 -17z"/>
<path d="M660 363 c1 -10 7 -47 15 -83 18 -83 18 -80 -5 -80 -15 0 -20 7 -20
25 0 14 -4 25 -10 25 -5 0 -10 -1 -10 -3 0 -9 -22 -125 -27 -141 -3 -12 -1
-17 8 -14 7 2 16 15 19 29 4 18 13 25 37 27 28 3 32 0 38 -27 6 -30 25 -43 25
-18 0 7 -11 71 -25 142 -14 72 -25 131 -25 133 0 1 -4 2 -10 2 -5 0 -10 -8
-10 -17z"/>
<path d="M760 235 c0 -90 4 -145 10 -145 6 0 10 55 10 145 0 90 -4 145 -10
145 -6 0 -10 -55 -10 -145z"/>
<path d="M850 288 c0 -94 -9 -106 -28 -38 l-10 35 -1 -38 c-1 -52 29 -157 46
-157 10 0 13 31 13 145 0 90 -4 145 -10 145 -6 0 -10 -37 -10 -92z"/>
<path d="M890 355 c0 -24 3 -25 55 -25 52 0 55 1 55 25 0 24 -3 25 -55 25 -52
0 -55 -1 -55 -25z"/>
<path d="M1026 373 c-3 -3 -6 -69 -6 -145 0 -116 2 -138 15 -138 13 0 15 22
15 139 0 127 -6 162 -24 144z"/>
<path d="M1087 373 c-12 -11 -7 -41 7 -46 8 -3 22 -4 32 -2 11 2 27 4 37 4 11
1 17 9 17 26 0 23 -4 25 -43 25 -24 0 -47 -3 -50 -7z"/>
<path d="M940 181 c0 -54 4 -91 10 -91 6 0 10 35 10 84 0 47 -4 88 -10 91 -6
4 -10 -27 -10 -84z"/>
<path d="M1080 175 l0 -85 50 0 c46 0 50 2 50 24 0 21 -5 25 -37 28 -35 3 -38
6 -38 33 0 27 3 30 38 33 32 3 37 7 37 28 0 22 -4 24 -50 24 l-50 0 0 -85z"/>
</g>
</svg>
